<mxfile host="app.diagrams.net" modified="2023-08-27T11:16:30.130Z" agent="Mozilla/5.0 (Macintosh; Intel Mac OS X 10_15_7) AppleWebKit/537.36 (KHTML, like Gecko) Chrome/116.0.0.0 Safari/537.36" etag="vsNmAV_TFsLwnsd0apVf" version="21.6.9" type="github">
  <diagram name="페이지-1" id="f26r0BhMpeoPPWx2_NhZ">
    <mxGraphModel dx="794" dy="1125" grid="1" gridSize="10" guides="1" tooltips="1" connect="1" arrows="1" fold="1" page="1" pageScale="1" pageWidth="827" pageHeight="1169" math="0" shadow="0">
      <root>
        <mxCell id="0" />
        <mxCell id="1" parent="0" />
        <mxCell id="y7CxAoiLwrXvXZonKaEz-7" style="edgeStyle=orthogonalEdgeStyle;orthogonalLoop=1;jettySize=auto;html=1;entryX=0;entryY=0.5;entryDx=0;entryDy=0;entryPerimeter=0;curved=1;exitX=1;exitY=0.5;exitDx=0;exitDy=0;" edge="1" parent="1" source="y7CxAoiLwrXvXZonKaEz-24" target="y7CxAoiLwrXvXZonKaEz-6">
          <mxGeometry relative="1" as="geometry">
            <mxPoint x="180" y="440" as="sourcePoint" />
          </mxGeometry>
        </mxCell>
        <mxCell id="y7CxAoiLwrXvXZonKaEz-8" style="edgeStyle=orthogonalEdgeStyle;orthogonalLoop=1;jettySize=auto;html=1;entryX=0;entryY=0.5;entryDx=0;entryDy=0;entryPerimeter=0;curved=1;exitX=1;exitY=0.5;exitDx=0;exitDy=0;" edge="1" parent="1" source="y7CxAoiLwrXvXZonKaEz-23" target="y7CxAoiLwrXvXZonKaEz-6">
          <mxGeometry relative="1" as="geometry">
            <mxPoint x="180" y="570" as="sourcePoint" />
          </mxGeometry>
        </mxCell>
        <mxCell id="y7CxAoiLwrXvXZonKaEz-9" style="edgeStyle=orthogonalEdgeStyle;orthogonalLoop=1;jettySize=auto;html=1;entryX=0;entryY=0.5;entryDx=0;entryDy=0;entryPerimeter=0;curved=1;exitX=1;exitY=0.5;exitDx=0;exitDy=0;" edge="1" parent="1" source="y7CxAoiLwrXvXZonKaEz-20" target="y7CxAoiLwrXvXZonKaEz-6">
          <mxGeometry relative="1" as="geometry">
            <mxPoint x="180" y="680" as="sourcePoint" />
          </mxGeometry>
        </mxCell>
        <mxCell id="y7CxAoiLwrXvXZonKaEz-14" style="edgeStyle=orthogonalEdgeStyle;rounded=0;orthogonalLoop=1;jettySize=auto;html=1;entryX=0;entryY=0.5;entryDx=0;entryDy=0;fontStyle=1" edge="1" parent="1" source="y7CxAoiLwrXvXZonKaEz-6" target="y7CxAoiLwrXvXZonKaEz-19">
          <mxGeometry relative="1" as="geometry">
            <mxPoint x="430" y="570" as="targetPoint" />
          </mxGeometry>
        </mxCell>
        <mxCell id="y7CxAoiLwrXvXZonKaEz-6" value="Kafka" style="sketch=0;points=[[0,0,0],[0.25,0,0],[0.5,0,0],[0.75,0,0],[1,0,0],[0,1,0],[0.25,1,0],[0.5,1,0],[0.75,1,0],[1,1,0],[0,0.25,0],[0,0.5,0],[0,0.75,0],[1,0.25,0],[1,0.5,0],[1,0.75,0]];outlineConnect=0;fontColor=#232F3E;gradientColor=#945DF2;gradientDirection=north;fillColor=#5A30B5;strokeColor=#ffffff;dashed=0;verticalLabelPosition=bottom;verticalAlign=top;align=center;html=1;fontSize=12;fontStyle=0;aspect=fixed;shape=mxgraph.aws4.resourceIcon;resIcon=mxgraph.aws4.managed_streaming_for_kafka;" vertex="1" parent="1">
          <mxGeometry x="290" y="531" width="78" height="78" as="geometry" />
        </mxCell>
        <mxCell id="y7CxAoiLwrXvXZonKaEz-16" value="" style="edgeStyle=orthogonalEdgeStyle;rounded=0;orthogonalLoop=1;jettySize=auto;html=1;entryX=0;entryY=0.5;entryDx=0;entryDy=0;exitX=1;exitY=0.5;exitDx=0;exitDy=0;" edge="1" parent="1" source="y7CxAoiLwrXvXZonKaEz-19" target="y7CxAoiLwrXvXZonKaEz-17">
          <mxGeometry relative="1" as="geometry">
            <mxPoint x="530" y="570" as="sourcePoint" />
            <mxPoint x="610" y="570" as="targetPoint" />
          </mxGeometry>
        </mxCell>
        <mxCell id="y7CxAoiLwrXvXZonKaEz-17" value="Elasticsearch" style="shape=image;verticalLabelPosition=bottom;labelBackgroundColor=default;verticalAlign=top;aspect=fixed;imageAspect=0;image=data:image/png,iVBORw0KGgoAAAANSUhEUgAAAGQAAABkCAYAAABw4pVUAAABXGlDQ1BJQ0MgUHJvZmlsZQAAKJF1kE1LAmEUhY9mKBbRwlZFuAj6YCpR14EZWeBi0j7djaOOwTi9zIxE1A9wGQQtaxNtWrqwRUS0C9oFBdGqTT8gmEUlb/fVSi26cDkPh3Mvlwu4fQpjugdAybDNVGI2uL6RCXpf4MMg/BjFtKJaLCbLSYrgWzvLuYdL6N2k2JWpXBy7j3bTEwfVm9VLX/lvvqP8ubylkn5Qh1Rm2oBLIpa3bSZ4jzhg0lHE+4K1Jp8Izjb5vJFZTsWJb4n71aKSI34ilrJtvtbGJb2sft0gru/NGytpsYd6CEkkEMQC5pAiXRL0Tz7ayMexBYYdmNiEhiJsmoqRw6AjT7wIAyqmIBGHEaKOiD///l/Lq9SAmTfAXW1585Q6GwH6Ci1vbBgYeAauA0wxlZ+vuhyPVYiEm9xDu7oPOX9dA7zjQP2B8/ca5/VToOsRuHI+ATZbYo/QTelLAAAAOGVYSWZNTQAqAAAACAABh2kABAAAAAEAAAAaAAAAAAACoAIABAAAAAEAAABkoAMABAAAAAEAAABkAAAAAAxz/HsAAAueSURBVHgB7V15bBTXGf/em9016/vmCIcBYwxuIMIcQRDU0BSMLcs0gKOWo1GLUEKiiKgSSqsELLWpkPoHRKoKJLSotKYpRCHY2MYJtCTiaHAUgVMXDFIxNInBJoDPtXdm5/Ub2kVms17P9d6Oknn/zM7M+67fb+fd8wbATS4CLgIuAi4CLgIuAi4CLgIuAi4CLgJiESBizVm3xhgQ+KRgMoBUCCqMA2DjgZBcPEoAJB3vErzeAxSCwNROYKQTrV4DSWomc1tuWPeArwbHE8JaipKhX34CGF2KoC9C0L+DkKSYgoWwu0hWM1DSDAxOQYKvkcxu7jOli5OQIwlhZ4sywausRPBWYdxP4RPg4xT/AD5PJ1F3DT5gNWR+y01OdnSrdRQh7B+FxVjUbALG1iEJibqjsCMjQ/qJWo92d5B5rWfsUGlGhyMIYU0zvo9wbAPCFpsJwn4Zdg517oJ5re8QrUYSmOJKiFJfsAFS6YuSD+YJjNmAKfYpFmkviXxi4kIIOz41X5Hpe2ofFBEPgCeXAhkVF1dGJodh9U/gIHjYVjKn9cuRBazloNbEjUvLDQW/HuymrRoZmjRTAOR2FdQ+ZlyZCAmtGQ2wFmRoZR/P2MjbpLC/JXu3MEuWQmdYAKZHDQo98WRToCnCXIrqho6L1ZAkPUeKWnp15DWcRUj0ckPhQrU/dAL/ZSO2nKQsClKaELcMg/VAgEErtgQryeOtzQ+u2fSDe5EVaizcpPaGTushQ4sp9BUWX91CGzbGoST4lBM4x85PLzEuHFuCKyFyXUGVci+0F0LYuzCQlNvYKeh1aJ0SjkPrJzE4ypoKtc6rbckQUEasIhnb1R62HZ02lZROfFICJoVNWTQhpI0gMPgra5r+ExPSUUW4ECLXT38NyaiKalHvReRC6VCxFeZwUnCUE1Syj50vfFZvaLHy2V57KscL1itd7I9Ea73bkEgCgHecNpBrgzKeKhiTgUgryPx/aWNjppOtYQbrpi3A/sVZohqrM0byXkrHllemra6OZNLkfXYHh/sXkgWXr5hUYB9w7PT0FDYAJ+0mQwss1IVF14DZEEXKkUwcjzt2f7TapFnb6hD5tqo1bZNM+hFbTKtPsJI320CIrdzuu+TvkAamO404kmQ9yccKtmEzdZZ1TcNrYDKD0D0VpAzb/kPDGzN3pxv/MVvI/Nb95sT/J2W5YGbHZ4wN9ig3sK9hC7kxg8GxcO8EHFzyWHY7phnDNxmrBy/dTOZcum5YNkLAMohyUDkuhAzNcZxQD93FMa8chxDC4GOcDn6VzL98IgJX06eWCFEaCkpDXXyLqsjIsH8DLB1bwd7IO8LOe9BSDVbeu7F4sn1m0RIhoUH4vTAYhhjS6hJPjqC6hLF7CP5lAHoGGxWnoH/gBHmyjVubzzQhuBrEp/xH2QlxmFiiFGdRCK4c4ZVYqAtUbx945A4y98ptXmZcvS4CLgIuAi4CLgIuAt9gBAz3sKauf+UNCHRPcwomnoU/aKEzFllsCbFuSuALnNhsvrzC3xbP2IwRsmmvd/K5vYPQe9eYHMcIPWUvgKd0s20WcAjzAvZw3vZK/t82LyfCF2Ib6l1No7fXOokMjQX1apNtZGiKEJDH8LBDVgJXCxsCz2rXRCZDhIS+av+hSOf02FKvXcQJE1xtZ3ciMJYwtn9mfWBv8SdM2ECNIUJI1y3t3QxnJXkQWEcbN59w5GxTf2fgMFQxQ1iZdciQEXb7c3xTyXmJfWF6xlRfMAwqZi7o/5W+zNZy6SakcMvOPHbvlumxL2tuxpZWv7waO4MNd5kKr8ys619gg6qYKnQTEuzrXqTNRzgxsTvcF6XjeD8hIVB/wzt+3YTQwQHn1R//R4d1dfDG6b5+SugTRQ19XN9l0U2IOtCXLyRqE0bYPTGEaK6FGKw04aJuEd2EEEXO1K1VdMaANoknJuGMvu0LrId6rpsQlcn+oYJO+s2w6SsqYTWax9OWbkJIiDmWEJC5zah+DXtc+JI5/hA/LHQT8jXPvq0XGGOeHH5L9nQTwiQScCwH3lHiXCPkTtuThNsjqZsQSryOJYR4cYm8qESgjacp3YQwj/cOT0cs6fab2/rElE3GjpuS0ymkmxCakMh/fEKn05HZSProyEvcznEi6yg35ahYNyFqgv8zno5Y0S2MEKZ+2LIiyd4JmIjAdRPiS049h+M5EeLOOCUZY/g7gq0rKtGtvA3pJuTyrpfbSPoYDjNB1kMk44RM8b/eUpJ43rq3sTXoJkRTQ7LHixs0iu33Q3fpI9E3h3gok4UTnGd/71JT4nYLKnSLGiMkbbTz6hHsg5DcSboDNp6R7EnO9VdCFb6sJyAZmnAiWWPeRp+WC/BLtwk6eTa+mGwoDL26cZKF/PxSqf+AXgE78hl6Qq6q2dWQnOGoWSqaX2wHDkN1aHtkbU0M+aeJJkNzwnCzaeran+2H3u7CoRHE87e0ZE2LNGOx6YVyBBiukoB2FRfKSSF6saXcfyOe8bi2XQRcBFwEXARcBFwEviEIGG5lheMuqqry9eWP3hI+F3n0UEkpyszi9tKnyqBLDZGAzwsdR5Y/LXR0wjQhGgFp+3a1dwUHBIzsPUz3xORUmJ0taFUrg27sHFzCpvFZ3Lngw1F97P3DlZXcJussEZJ3cE/J9a6uBhwIfRgxjmeaw08+MhGSvD6OVoZXjUtKewnVNg5Qd9euqDw9fE5zdywRopnM3f/GhY5AAMcvxKQJySnwWLa4CamYUTG1CackXq0tXfN+zHwGbhoaOommNzHJUzJK8ggZlvdQCoXpWdHciM81QnFZKWksbzjcsLLhSJ4dTlgmpK3yhZujk5Kq7HBmJB35qRkwysNlIHEk07HvM1KiMKW5vO7wxtgZR75rucgKm8jdvxOLrkFuRVeKzwdLxk7AzXdscznsuq1HrE3f8veqL2LFHzSj2PITEjY6RspalOrzmd5JLawn2lGjYFZWruPJuO87g6cG/EpqtDj0XLONkOYNG/qy/Knf81Ea0mPYSJ78tAzITBC4GM6Ic0PzYhMZ94ytqC3/kenRZ9sI0fy6tnbj+fEpKT+WCLWtHZyBRBQ4qSIfSsDQ34wpBOjqo2WVlmZVbSVE8+/fa5+vRlJes6OkT5AkKM4ZjUXV0Mgd+Bs7YoyQzTVlT39g1TvbCdEcur7u+dcnpqRts1IBa7LzcseC3yPsjWRTWGJRoBXRm46Vrn7LlIIIIdwymk/qOlL3Ud4zq0M98uBSo+WX9kDMwScj189n11nbIma4MS4h646Vrf6TXTq5FwaTDuz5aXt/z5tBNaT7aZyVlQOTUtLsipGLHvyTBSgla2pKVtXZaYA7IZqzeX/Zu6Czp/dvfYqcOJLzRRnZMCUNd7l0cELQrihMfaa+rPKC3W4KIURzemL17zKCsvLRzf7+qG/zao48in2NSSmmm/B2YzOcvoNE9j5XU1HRM1wGK9eFERJ2ctKf9/yyvbf7F0FVfVCEaRX4HBwwHJuUHM7muOP9UV7CXq4tW7OPp3PCCdGCebT6D1M6g701twL9RQk4NjU3Zwxo/Q1HJq1Fy+hB8Hm21iyr4L5DQVwICQM/uXr3+ikp6ZsTPd7Hw9ecdVQ/JSC9VFO66owov+JKSDjI8vp3l+L3D7bj6ypLwtfieyTncBuRXcVN/3ynqqpKyJrecLyOICTsTNmxQ8WUUvw4MX7IkXD69EXYWMQRm7Ea8PX4zdEdIp+ICDeMLyWNVMDjfM0Hh9ICMqnADcRW4wTQMux8cXmrU+tLoP8n0c5RovhqseV0i0c8RnQ66gmJ5viyxgNJXjVxMVXhu+jsIgRxFv6NzPUaGdwBql4ElX7GKDmFJDTWlpf3R7Mbr2uOJyQaMOWNhyYTxYMfd1THqYRMwPI+GwPx4XfIUvEoqQx3GWUQxDcoO3H9RQcer4UYaW4oXfV5NH3uNRcBFwEXARcBFwEXARcBFwEXARcBF4FvMwL/BTpFRpgUlkucAAAAAElFTkSuQmCC;" vertex="1" parent="1">
          <mxGeometry x="610" y="520" width="100" height="100" as="geometry" />
        </mxCell>
        <mxCell id="y7CxAoiLwrXvXZonKaEz-19" value="Logstash" style="shape=image;verticalLabelPosition=bottom;labelBackgroundColor=default;verticalAlign=top;aspect=fixed;imageAspect=0;image=data:image/png,iVBORw0KGgoAAAANSUhEUgAAAGQAAABkCAYAAABw4pVUAAABXGlDQ1BJQ0MgUHJvZmlsZQAAKJF1kE1LAmEUhY9mKBbRwlZFuAj6YCpR14EZWeBi0j7djaOOwTi9zIxE1A9wGQQtaxNtWrqwRUS0C9oFBdGqTT8gmEUlb/fVSi26cDkPh3Mvlwu4fQpjugdAybDNVGI2uL6RCXpf4MMg/BjFtKJaLCbLSYrgWzvLuYdL6N2k2JWpXBy7j3bTEwfVm9VLX/lvvqP8ubylkn5Qh1Rm2oBLIpa3bSZ4jzhg0lHE+4K1Jp8Izjb5vJFZTsWJb4n71aKSI34ilrJtvtbGJb2sft0gru/NGytpsYd6CEkkEMQC5pAiXRL0Tz7ayMexBYYdmNiEhiJsmoqRw6AjT7wIAyqmIBGHEaKOiD///l/Lq9SAmTfAXW1585Q6GwH6Ci1vbBgYeAauA0wxlZ+vuhyPVYiEm9xDu7oPOX9dA7zjQP2B8/ca5/VToOsRuHI+ATZbYo/QTelLAAAAOGVYSWZNTQAqAAAACAABh2kABAAAAAEAAAAaAAAAAAACoAIABAAAAAEAAABkoAMABAAAAAEAAABkAAAAAAxz/HsAAAV+SURBVHgB7Z1faBxFHMdnNnf5o1E0keKLGBAqJbkUqQ82mFC1RtKCLyrUB8Una0EURfHJGvXJ6oPoi4j4IEiUPKnUQGzuNuYKIgakRbEgtAVp/YMUTVOb29sdv3Ndjiv02Nzs7d1vJr+FYfd2d2Z+v+9nfzczO3t7QvDCCrACrAArwAqwAqwAK8AKsAKsACvACrACdBSQpqYEpbE9UsrHW8mvpLgkIrUuPHFBht6ZUIpTvTfkT8m7V4NWynH53Jypc8qTo0KJp1vKr3C2xDWAtfIUuAgRXNxY31geK3uROJYT3mfyvhO/tVSmYydrTbq6SCGv95R8CKDeDqQ6W/EL31SXC/uUEsbR21WHUlbedSCN9oOAh7QXMI5W/cJqUBx/oPH4VtgmBeQqwaW4S3jqWMUfm1PHx7dddczhD3SBxKLjK+1AEEQnA3/sQYc51F0jD0RbCijb0A9YqCwXDtYtd3TDCiAxlB6pxAeBX3jVURY1t6wB0gDhDYyBXmr47NSmjUAwjJFHqqXxA06RiJ2xEgjGljKS0UcYUO5wDYqVQDSEeEA5p37YlXcJirVAYgg7q2sbzzMQQgooKV9TpdFbCZmUyhTbI0Tf8BqsSvliKhUIZbYeiNYSva5DaqVwMyFdjU1xAoiOkiCUTnSDnQCiL0ep1BPGlyWhjM4Awb2ue1xo3J0BogeLoejZQ+hiNzLFGSBXvFf3GqlAKJNTQCIprL+V4hQQKdSdhC52I1OcAoK5eOunep0CgufE8qo00m90aRLJ5BSQK5oODxLR1sgM94D0oGm3eHEPiMUwtOkMhBhABsJAiClAzByOEAZCTAFi5nCEMBBiChAzhyOEgRBTgJg5HCEMhJgCxMzhCGEgxBQgZg5HCDEgxi8OePfojbuP/9RLxp1/o76aLX8+tv+PHXP9+hUF11xu6R+4dFPfwOVrHmzTTsztv/Llvkc/NinOGEg1iPJr/9GZC5KiUvM/VEpGSE3FkBIziirTWcVIiYGm9SccMP7K+vF0/vuEsvmwgQLGQP76p+e8QX2cJUEBYyB4wmMtoWw+bKCAMRDP8xiIgeBJWdIAOZtUOB9vXQFjIBMTExpIpt3H1t2xP4cxkNnZ2Qju/2q/BLQ8MAYSu3GCljv2W5MKiFJq2X4JaHmQFkiRljv2W5MKiO/7ug05Y78MdDxIBSR243M67thvSWogGLF/Yr8MdDxIDWRpaelnuLNKxyW7LUkNRLuPKHnfbhnoWN8WIGEYfoou8Gk6btlrSVuAoLeFF/LII/bKQMfytgDR7gwPD+spy1/ouGanJW0DMj8/r+dQDyI1nc+2U6LOWt02INrsYrH4LVZznXXBrdraCkRLU6lUnsWK50oMr5O2AymXyxeiKNIvE+M/aTGA0nYg2gb0ur7DyulXghtovaksmQDRNaM9eQtd4fc2ZQWfVFcgMyC6hsnJyRewmq/XxhuJCmQKRE/zYnkSkfJFoiV8Qk2BTIHoGtCeXB4aGnoEUD5kzZMVyByINgGDxhB3hZ/B5izueemHI3hpokBHgMR1KzT0r+MBu72IFn4MlQCQmgmIlBIGj7vw4esmNm3p3Z2MkLrQKysr5xEt+7HjYSQe1deV6fLrmQDlq1wuN4p25TDS3w12bdnNrkRIo9qLi4vrpVLpTQAZwf6XkfivVxsF6tY2uscXETHvTE1N3Y6GfzLuJm+5J+yNf9KWFbj4meEyyi/PzMw8FwTBbkTP/Tph306kTH+OlpVfmy2XHJBGwxcWFjbw2Y/TYX1senr6NkDajigawV2AIezSgAaD7Xc8hbW4rq/vd5HrbTrW8UI8IK7UOX1uVosnvJNZlc3lsgKsACvACrACrAArwAqwAqwAK8AKsAKsQCcV+B+mOkfaA0XZQwAAAABJRU5ErkJggg==;fontStyle=1" vertex="1" parent="1">
          <mxGeometry x="440" y="520" width="100" height="100" as="geometry" />
        </mxCell>
        <mxCell id="y7CxAoiLwrXvXZonKaEz-20" value="Filebeat" style="shape=image;verticalLabelPosition=bottom;labelBackgroundColor=default;verticalAlign=top;aspect=fixed;imageAspect=0;image=https://cdn.freebiesupply.com/logos/large/2x/elastic-beats-logo-png-transparent.png;" vertex="1" parent="1">
          <mxGeometry x="70" y="670" width="110" height="110" as="geometry" />
        </mxCell>
        <mxCell id="y7CxAoiLwrXvXZonKaEz-23" value="Filebeat" style="shape=image;verticalLabelPosition=bottom;labelBackgroundColor=default;verticalAlign=top;aspect=fixed;imageAspect=0;image=https://cdn.freebiesupply.com/logos/large/2x/elastic-beats-logo-png-transparent.png;" vertex="1" parent="1">
          <mxGeometry x="70" y="515" width="110" height="110" as="geometry" />
        </mxCell>
        <mxCell id="y7CxAoiLwrXvXZonKaEz-24" value="Filebeat" style="shape=image;verticalLabelPosition=bottom;labelBackgroundColor=default;verticalAlign=top;aspect=fixed;imageAspect=0;image=https://cdn.freebiesupply.com/logos/large/2x/elastic-beats-logo-png-transparent.png;" vertex="1" parent="1">
          <mxGeometry x="70" y="360" width="110" height="110" as="geometry" />
        </mxCell>
      </root>
    </mxGraphModel>
  </diagram>
</mxfile>
